<svg width="24" height="24" viewBox="0 0 24 24" fill="none" xmlns="http://www.w3.org/2000/svg">
<path fill-rule="evenodd" clip-rule="evenodd" d="M22.9059 1.60962C22.7291 1.20328 22.4224 1 21.9848 1H2.01479C1.57817 1 1.27058 1.20328 1.09392 1.60962C0.91703 2.03655 0.990029 2.40093 1.31271 2.70323L9.30087 10.4062L9.25 18.1876C9.25 18.4582 9.74025 18.6773 9.9375 18.875L13.2952 22.7023C13.4825 22.9007 13.7161 23 13.9976 23C14.1219 23 14.2518 22.9739 14.3875 22.9214C14.7933 22.7445 14.7497 22.0622 14.7497 21.625V10.4062L22.6881 2.70323C23.0106 2.40093 23.0826 2.03655 22.9059 1.60962Z" stroke="#007BFF" stroke-width="2"/>
</svg>
