<svg xmlns="http://www.w3.org/2000/svg" width="48" height="48" viewBox="0 0 48 48" fill="none">
<path fill-rule="evenodd" clip-rule="evenodd" d="M34.0915 30.2736C35.0204 31.2025 35.0204 32.7085 34.0915 33.6374V33.6374C33.1627 34.5663 31.6566 34.5663 30.7278 33.6374L13.909 16.8186C12.9801 15.8898 12.9801 14.3837 13.909 13.4548V13.4548C14.8379 12.526 16.3439 12.526 17.2728 13.4548L34.0915 30.2736Z" fill="#007BFF"/>
<path fill-rule="evenodd" clip-rule="evenodd" d="M30.7277 13.4548C31.6566 12.526 33.1627 12.526 34.0915 13.4548V13.4548C35.0204 14.3837 35.0204 15.8898 34.0915 16.8186L17.2728 33.6374C16.3439 34.5663 14.8379 34.5663 13.909 33.6374V33.6374C12.9801 32.7085 12.9801 31.2025 13.909 30.2736L30.7277 13.4548Z" fill="#007BFF"/>
</svg>