<svg width="50" height="50" viewBox="0 0 50 50" fill="none" xmlns="http://www.w3.org/2000/svg">
<path d="M50 24.9101C50 31.5644 47.3661 37.9461 42.6777 42.6514C37.9893 47.3566 31.6304 50 25 50C18.3696 50 12.0107 47.3566 7.32233 42.6514C2.63392 37.9461 0 31.5644 0 24.9101C0.00086163 24.9067 0.00264218 24.9035 0.00515148 24.901C0.00766078 24.8985 0.0108046 24.8967 0.0142471 24.8958C3.12145 21.4091 6.92055 18.6127 11.1678 16.6859C15.4151 14.7592 20.0168 13.7447 24.6777 13.7075C21.7812 13.7975 19.0333 15.0155 17.0162 17.1036C14.999 19.1916 13.871 21.9857 13.871 24.8941C13.871 27.8024 14.999 30.5965 17.0162 32.6845C19.0333 34.7726 21.7812 35.9906 24.6777 36.0807H25.3224C29.9829 36.042 34.5841 35.0271 38.8313 33.1012C43.0786 31.1752 46.8784 28.3804 49.9876 24.8958C49.9876 24.8958 49.9965 24.903 50 24.9101Z" fill="url(#paint0_linear_3752_62971)"/>
<path d="M50.0001 24.8781L49.9877 24.896C46.8794 28.3817 43.0801 31.1776 38.8331 33.1048C34.5862 35.0321 29.985 36.0481 25.3242 36.088C28.2207 35.9979 30.9686 34.7799 32.9857 32.6918C35.0029 30.6038 36.131 27.8097 36.131 24.9014C36.131 21.993 35.0029 19.1989 32.9857 17.1109C30.9686 15.0228 28.2207 13.8048 25.3242 13.7148H24.6796C20.02 13.7518 15.4196 14.7653 11.173 16.6905C6.92651 18.6156 3.12757 21.4099 0.0196868 24.8942L0.00543976 24.8763C0.0610901 18.2595 2.71925 11.9326 7.40112 7.27342C12.083 2.61422 18.4094 0 25.0028 0C31.5962 0 37.9226 2.61422 42.6044 7.27342C47.2863 11.9326 49.9445 18.2595 50.0001 24.8763V24.8781Z" fill="url(#paint1_linear_3752_62971)"/>
<defs>
<linearGradient id="paint0_linear_3752_62971" x1="0.00534265" y1="31.7465" x2="50" y2="31.7465" gradientUnits="userSpaceOnUse">
<stop stop-color="#8A3D79"/>
<stop offset="0.25" stop-color="#824E88"/>
<stop offset="0.61" stop-color="#3A97BA"/>
<stop offset="0.74" stop-color="#2AB2C7"/>
<stop offset="1" stop-color="#7EE8FC"/>
</linearGradient>
<linearGradient id="paint1_linear_3752_62971" x1="0.00543976" y1="18.0435" x2="42.369" y2="18.0435" gradientUnits="userSpaceOnUse">
<stop stop-color="#B81F68"/>
<stop offset="0.25" stop-color="#ED1F55"/>
<stop offset="0.5" stop-color="#FC4844"/>
<stop offset="0.75" stop-color="#FC972B"/>
<stop offset="1" stop-color="#FBC325"/>
</linearGradient>
</defs>
</svg>
