<svg width="22" height="22" viewBox="0 0 22 22" fill="none" xmlns="http://www.w3.org/2000/svg">
<path fill-rule="evenodd" clip-rule="evenodd" d="M11.0001 4.1732C10.5612 4.1732 10.2054 3.81739 10.2054 3.37851V0.794694C10.2054 0.355811 10.5612 0 11.0001 0C11.439 0 11.7948 0.355811 11.7948 0.794694V3.37851C11.7948 3.81739 11.439 4.1732 11.0001 4.1732ZM5.34531 11.0001C5.34531 14.1182 7.88208 16.655 11.0001 16.655C14.1182 16.655 16.655 14.1182 16.655 11.0001C16.655 7.88208 14.1182 5.34531 11.0001 5.34531C7.88208 5.34531 5.34531 7.88208 5.34531 11.0001ZM10.2054 21.2048C10.2054 21.6437 10.5612 21.9995 11.0001 21.9995C11.439 21.9995 11.7948 21.6438 11.7948 21.2048V18.621C11.7948 18.1821 11.439 17.8263 11.0001 17.8263C10.5612 17.8263 10.2054 18.1821 10.2054 18.621V21.2048ZM21.2052 11.7945H18.6214C18.1825 11.7945 17.8267 11.4387 17.8267 10.9998C17.8267 10.5609 18.1825 10.2051 18.6214 10.2051H21.2052C21.6441 10.2051 21.9999 10.5609 21.9999 10.9998C21.9999 11.4387 21.6442 11.7945 21.2052 11.7945ZM0.794694 11.7945H3.37851C3.81739 11.7945 4.1732 11.4387 4.1732 10.9998C4.1732 10.5609 3.81739 10.2051 3.37851 10.2051H0.794694C0.355811 10.2051 0 10.5609 0 10.9998C0 11.4387 0.355811 11.7945 0.794694 11.7945ZM16.3895 6.40554C16.1861 6.40554 15.9827 6.32798 15.8276 6.17275C15.5172 5.86239 15.5172 5.35919 15.8276 5.04895L17.6546 3.222C17.965 2.91164 18.4682 2.91154 18.7784 3.222C19.0888 3.53235 19.0888 4.03555 18.7784 4.3458L16.9514 6.17275C16.7962 6.32798 16.5928 6.40554 16.3895 6.40554ZM3.2216 18.7784C3.37672 18.9336 3.58017 19.0112 3.7835 19.0112C3.98694 19.0112 4.19028 18.9336 4.3454 18.7784L6.17246 16.9514C6.48281 16.6411 6.48281 16.1379 6.17246 15.8276C5.86221 15.5172 5.35901 15.5172 5.04865 15.8276L3.2216 17.6546C2.91125 17.9649 2.91125 18.4681 3.2216 18.7784ZM18.2165 19.0112C18.0132 19.0112 17.8097 18.9336 17.6546 18.7784L15.8276 16.9514C15.5172 16.641 15.5172 16.1378 15.8276 15.8276C16.1379 15.5172 16.6411 15.5172 16.9514 15.8276L18.7784 17.6546C19.0888 17.965 19.0888 18.4682 18.7784 18.7784C18.6233 18.9336 18.42 19.0112 18.2165 19.0112ZM5.04865 6.17275C5.20378 6.32798 5.40722 6.40554 5.61056 6.40554C5.814 6.40554 6.01733 6.32798 6.17246 6.17275C6.48281 5.86239 6.48281 5.3593 6.17246 5.04895L4.3454 3.222C4.03515 2.91154 3.53195 2.91164 3.2216 3.222C2.91125 3.53235 2.91125 4.03545 3.2216 4.3458L5.04865 6.17275Z" fill="#CED4DC"/>
</svg>
