<svg width="30" height="28" viewBox="0 0 30 28" fill="none" xmlns="http://www.w3.org/2000/svg">
<path d="M12.4672 17.32L3.53844 11.068C3.4932 11.0364 3.48221 10.974 3.51389 10.9288L9.70851 2.08192C9.74019 2.03667 9.80254 2.02568 9.84778 2.05736L26.8861 13.9877C26.9314 14.0194 26.9424 14.0818 26.9107 14.127L25.8209 15.6834M12.4672 17.32L20.5768 22.9984C20.622 23.0301 20.6844 23.0191 20.7161 22.9739L21.8059 21.4175M12.4672 17.32L8.19524 23.421C8.17652 23.4477 8.14594 23.4637 8.11331 23.4636L2.0621 23.4628M2.0621 23.4628L1.98052 20.9641M2.0621 23.4628L2.14367 25.9615M21.8059 21.4175L24.591 23.3676C24.6362 23.3993 24.6986 23.3883 24.7303 23.3431L28.6306 17.7728C28.6623 17.7276 28.6513 17.6652 28.606 17.6336L25.8209 15.6834M21.8059 21.4175L25.8209 15.6834" stroke="#CED4DC" stroke-width="2.2" stroke-linecap="round"/>
</svg>
